<?xml version="1.0" encoding="UTF-8"?> <svg xmlns="http://www.w3.org/2000/svg" width="17.5" height="20" viewBox="0 0 17.5 20"><defs><style>.cls-1{fill:#fc7405;}.cls-2{fill:#ffbb1e;}</style></defs><title>Asset 1</title><g id="Layer_2" data-name="Layer 2"><g id="Layer_1-2" data-name="Layer 1"><path class="cls-1" d="M12.64,2a22.63,22.63,0,0,0-2.19,2.34A30.35,30.35,0,0,0,6.56,0C2.72,3.56,0,8.2,0,11a8.88,8.88,0,0,0,8.75,9,8.88,8.88,0,0,0,8.75-9c0-2.08-2-6.37-4.86-9ZM8.75,18.13A7,7,0,0,1,1.88,11c0-1.77,1.73-5.2,4.69-8.36A27.47,27.47,0,0,1,8.93,5.45l1.43,2,1.53-1.88c.23-.28.47-.56.71-.82,1.81,2.24,3,5.07,3,6.29A7,7,0,0,1,8.75,18.13Z"></path><path class="cls-2" d="M12.25,9.5l-2,2.29S7.1,7.77,6.86,7.5c-1.65,2-2.48,3.15-2.48,4.47a4.2,4.2,0,0,0,4.47,4.28,4.64,4.64,0,0,0,2.64-.82,4.08,4.08,0,0,0,1.14-5.25c-.11-.22-.24-.45-.38-.68Z"></path></g></g></svg> 